<svg width="3171" height="529" viewBox="0 0 3171 529" fill="none" xmlns="http://www.w3.org/2000/svg">
<path d="M2722.32 523.962L2866.12 334.406L2727.82 151.143H2888.12L2946.27 229.797L3005.2 151.143H3164.71L3027.2 334.406L3171 523.962H3009.13L2946.27 440.589L2883.41 523.962H2722.32Z" fill="white"/>
<path d="M1997.17 529C1962.36 529 1931.97 523.328 1906 511.985C1880.55 500.127 1860.55 481.05 1846 454.754C1831.98 428.459 1824.96 393.399 1824.96 349.573C1824.96 304.716 1833.02 267.336 1849.12 237.431C1865.22 207.527 1886.78 185.098 1913.79 170.146C1940.8 154.678 1970.15 146.944 2001.84 146.944C2018.98 146.944 2035.87 148.749 2052.49 152.358C2069.63 155.967 2084.44 161.123 2096.9 167.826V0H2243.39V521.266H2116.38L2109.37 492.651C2094.83 503.994 2078.46 513.017 2060.28 519.719C2042.62 525.906 2021.58 529 1997.17 529ZM2039.24 423.819C2061.58 423.819 2080.8 416.343 2096.9 401.39V271.461C2082.36 258.571 2063.14 252.126 2039.24 252.126C2020.02 252.126 2004.44 260.633 1992.49 277.648C1980.54 294.662 1974.57 318.895 1974.57 350.346C1974.57 381.282 1979.76 401.39 1990.15 410.671C2000.54 419.436 2016.91 423.819 2039.24 423.819Z" fill="white"/>
<path d="M1411.57 523.962V0H1559.66V258.871L1663.64 155.478H1831.42L1682.55 310.957L1840.09 523.962H1682.55L1590.38 387.141L1559.66 417.459V523.962H1411.57Z" fill="white"/>
<path d="M1099.01 523.962V153.912H1239.39L1243.27 183.578C1258.27 174.73 1277.4 166.663 1300.66 159.377C1323.93 152.09 1347.46 147.666 1371.24 146.105V255.402C1357.8 256.443 1343.06 258.265 1327.03 260.867C1311.52 263.469 1296.27 266.852 1281.27 271.016C1266.8 274.659 1254.65 278.823 1244.82 283.507V523.962H1099.01Z" fill="white"/>
<path d="M773.259 529C750.407 529 729.079 524.866 709.275 516.599C689.978 508.331 674.49 495.413 662.81 477.844C651.131 460.275 645.291 438.056 645.291 411.186C645.291 372.431 657.986 342.461 683.377 321.275C708.767 299.573 747.107 288.722 798.395 288.722H892.086V281.746C892.086 267.277 886.246 256.684 874.566 249.967C862.887 243.25 842.321 239.891 812.868 239.891C771.227 239.891 730.095 246.35 689.47 259.268V171.683C707.751 164.449 730.603 158.506 758.024 153.856C785.446 148.688 813.376 146.105 841.813 146.105C899.195 146.105 944.644 157.989 978.159 181.759C1011.67 205.528 1028.43 243.25 1028.43 294.922V521.249H903.512L896.656 491.796C883.961 503.164 867.457 512.206 847.145 518.924C827.34 525.641 802.712 529 773.259 529ZM822.008 443.74C838.258 443.74 851.969 440.898 863.141 435.214C874.82 429.53 884.469 422.554 892.086 414.286V368.556H822.77C791.286 368.556 775.544 381.216 775.544 406.536C775.544 431.338 791.032 443.74 822.008 443.74Z" fill="white"/>
<path d="M0 523.962V153.912H134.518L138.383 183.578C154.361 172.648 172.142 163.801 191.727 157.035C211.827 149.748 233.731 146.105 257.439 146.105C281.148 146.105 299.702 149.488 313.102 156.254C326.502 163.02 337.326 172.909 345.572 185.92C362.065 173.95 380.619 164.321 401.234 157.035C422.366 149.748 447.105 146.105 475.451 146.105C518.229 146.105 549.668 157.555 569.768 180.455C589.869 202.835 599.919 237.186 599.919 283.507V523.962H456.897V300.683C456.897 284.028 453.547 272.317 446.847 265.551C440.147 258.265 429.066 254.622 413.604 254.622C393.504 254.622 377.011 261.908 364.126 276.481C365.157 283.247 365.672 289.753 365.672 295.998C365.672 301.724 365.672 308.229 365.672 315.516V523.962H231.154V298.341C231.154 283.247 228.577 272.317 223.423 265.551C218.269 258.265 208.477 254.622 194.046 254.622C184.253 254.622 174.719 257.224 165.442 262.429C156.164 267.633 147.918 273.879 140.703 281.165V523.962H0Z" fill="white"/>
<path fill-rule="evenodd" clip-rule="evenodd" d="M2508.08 146.105C2508.08 146.105 2508.07 146.105 2508.06 146.105C2389.73 146.105 2293.81 231.819 2293.81 337.552C2293.81 443.286 2389.73 529 2508.06 529C2626.38 529 2722.3 443.306 2722.32 337.59V337.552V337.515C2722.3 231.804 2626.39 146.113 2508.08 146.105ZM2451.91 199.42C2396.27 217.483 2354.64 261.616 2345.51 315.291H2409.85C2414.34 274.226 2428.76 234.682 2451.91 199.42ZM2409.85 359.814H2345.51C2354.64 413.488 2396.27 457.622 2451.91 475.685C2428.76 440.423 2414.34 400.879 2409.85 359.814ZM2564.22 475.685C2619.86 457.622 2661.49 413.488 2670.62 359.814H2606.27C2601.79 400.879 2587.37 440.423 2564.22 475.685ZM2556.17 359.814C2550.93 400.127 2534.35 438.516 2508.06 471.287C2481.78 438.516 2465.2 400.127 2459.96 359.814H2556.17ZM2556.17 315.291H2459.96C2465.2 274.977 2481.78 236.588 2508.06 203.817C2534.35 236.588 2550.93 274.977 2556.17 315.291ZM2606.27 315.291C2601.79 274.226 2587.37 234.682 2564.22 199.42C2619.86 217.483 2661.49 261.616 2670.62 315.291H2606.27Z" fill="white"/>
</svg>
